<svg width="698" height="207" viewBox="0 0 698 207" fill="none" xmlns="http://www.w3.org/2000/svg">
<path d="M58.4583 201.551C55.4273 204.825 52.9473 207.107 52.9473 206.624C52.9473 204.502 63.7603 190.217 70.7743 183.073C100.846 152.44 150.799 132.988 206.947 130.047C218.927 129.42 376.095 129.423 532.781 130.055L697.947 130.72V136.055V141.389H589.881C512.383 141.389 180.223 140.697 178.73 141.496C168.214 141.799 167.188 142.84 161.447 143.318C116.128 151.464 82.1633 175.947 58.4583 201.551Z" fill="#D23636"/>
<path fill-rule="evenodd" clip-rule="evenodd" d="M52.8798 59.6134L52.8637 59.6255C2.33545 97.3544 0.26351 98.9016 0.190658 100.536C0.187611 100.604 0.18813 100.672 0.188671 100.744C0.189978 100.917 0.191427 101.111 0.14476 101.355C-1.06424 107.676 5.53967 113.606 11.0117 111.113C13.2977 110.071 32.4331 95.9047 112.073 36.2906L135.284 18.9169L196.831 64.9841C230.889 90.4761 259.633 111.303 261.188 111.614C263.311 112.039 264.789 111.511 267.231 109.456C270.052 107.082 270.426 106.21 270.163 102.617C269.864 98.5252 269.746 98.4122 251.362 84.7202C241.187 77.1412 230.949 69.3561 228.612 67.4202L224.362 63.8992V46.3835C224.362 36.7505 223.921 28.0448 223.383 27.0388C221.931 24.3248 217.002 22.9998 208.362 22.9998C199.722 22.9998 194.793 24.3248 193.341 27.0388C192.803 28.0448 192.362 31.1477 192.362 33.9337C192.362 36.7197 191.925 38.9996 191.391 38.9996C190.858 38.9996 186.92 36.3837 182.641 33.1867C142.314 3.05472 137.965 0 135.396 0C133.392 0 116.465 12.1224 69.7779 46.9944C64.5566 50.8945 59.7269 54.5008 55.2596 57.8365L52.8798 59.6134ZM46.3618 97.0101L86.457 67.0151L126.551 37.0206L131.003 40.6686L135.454 44.3155L139.323 40.5376L143.193 36.7587L151.848 43.1295C156.608 46.6324 162.381 50.8492 164.676 52.4993C166.972 54.1493 181.34 64.8701 196.606 76.3221L224.362 97.1462V111.572V125.999L216.112 126.003C205.163 126.008 177.92 128.556 167.335 130.564C153.583 133.172 134.514 138.556 123.54 142.928C88.8591 156.745 66.7888 173.753 48.1638 201.014C46.5578 203.366 46.4638 200.655 46.4138 150.254L46.3618 97.0101ZM133.362 83.9991V93H123.663L113.645 93.014V84.014V73.9991H123.362H133.362V83.9991ZM156.862 83.5V93H147.398H137.673V84V73.9991H147.398H156.862V83.5ZM133.362 106.999V116.999H123.362L113.663 117V107L113.645 97.5H123.163H133.362V106.999ZM156.862 107.264V116.999H147.398H137.362V106.963V97.514H147.145L156.862 97.4991V102.389V107.264Z" fill="#D32820"/>
<rect x="113.5" y="74" width="21" height="21" fill="white"/>
<rect x="136.5" y="74" width="21" height="21" fill="white"/>
<rect x="113.5" y="97" width="21" height="21" fill="white"/>
<rect x="136.5" y="97" width="21" height="21" fill="white"/>
<path d="M328.595 69.5V115H318.439L301.251 85.5938V115H291.064V69.5H301.251L318.47 98.9062V69.5H328.595ZM359.435 78.1562L347.685 115H336.81L353.654 69.5H360.529L359.435 78.1562ZM369.185 115L357.404 78.1562L356.185 69.5H363.154L380.06 115H369.185ZM368.685 98.0625V105.938H344.966V98.0625H368.685ZM390.588 69.5L399.494 89.75L408.463 69.5H419.463L404.681 98.5625V115H394.338V98.5625L379.525 69.5H390.588ZM441.615 78.1562L429.865 115H418.99L435.834 69.5H442.709L441.615 78.1562ZM451.365 115L439.584 78.1562L438.365 69.5H445.334L462.24 115H451.365ZM450.865 98.0625V105.938H427.146V98.0625H450.865ZM488.049 95.3438H476.361L476.299 88.5312H485.955C487.663 88.5312 489.049 88.3229 490.111 87.9062C491.195 87.4896 491.986 86.8854 492.486 86.0938C492.986 85.2812 493.236 84.2812 493.236 83.0938C493.236 81.7396 492.986 80.6458 492.486 79.8125C491.986 78.9792 491.195 78.375 490.111 78C489.049 77.6042 487.674 77.4062 485.986 77.4062H480.049V115H469.861V69.5H485.986C488.715 69.5 491.153 69.75 493.299 70.25C495.445 70.75 497.268 71.5208 498.768 72.5625C500.288 73.6042 501.445 74.9062 502.236 76.4688C503.028 78.0312 503.424 79.875 503.424 82C503.424 83.8542 503.007 85.5833 502.174 87.1875C501.361 88.7917 500.049 90.0938 498.236 91.0938C496.424 92.0938 493.997 92.6354 490.955 92.7188L488.049 95.3438ZM487.643 115H473.768L477.455 107.125H487.643C489.205 107.125 490.476 106.875 491.455 106.375C492.434 105.875 493.153 105.198 493.611 104.344C494.07 103.49 494.299 102.531 494.299 101.469C494.299 100.219 494.08 99.1354 493.643 98.2188C493.226 97.3021 492.559 96.5938 491.643 96.0938C490.747 95.5938 489.549 95.3438 488.049 95.3438H478.924L478.986 88.5312H490.143L492.518 91.2188C495.413 91.1562 497.726 91.625 499.455 92.625C501.205 93.6042 502.465 94.8958 503.236 96.5C504.007 98.1042 504.393 99.8021 504.393 101.594C504.393 104.552 503.757 107.031 502.486 109.031C501.215 111.01 499.33 112.5 496.83 113.5C494.351 114.5 491.288 115 487.643 115ZM534.604 69.5H552.072C555.552 69.5 558.562 70.0208 561.104 71.0625C563.666 72.1042 565.635 73.6458 567.01 75.6875C568.385 77.7292 569.072 80.25 569.072 83.25C569.072 85.75 568.666 87.875 567.854 89.625C567.041 91.375 565.895 92.8229 564.416 93.9688C562.958 95.1146 561.25 96.0417 559.291 96.75L555.979 98.5625H541.104L541.041 90.6562H552.104C553.625 90.6562 554.885 90.3854 555.885 89.8438C556.885 89.3021 557.635 88.5417 558.135 87.5625C558.656 86.5625 558.916 85.3958 558.916 84.0625C558.916 82.6875 558.656 81.5 558.135 80.5C557.614 79.5 556.843 78.7396 555.822 78.2188C554.822 77.6771 553.572 77.4062 552.072 77.4062H544.791V115H534.604V69.5ZM559.791 115L549.572 94.7812L560.322 94.75L570.697 114.531V115H559.791ZM610.756 107.125V115H586.538V107.125H610.756ZM590.006 69.5V115H579.819V69.5H590.006ZM607.631 87.8125V95.4375H586.538V87.8125H607.631ZM610.788 69.5V77.4062H586.538V69.5H610.788ZM638.503 78.1562L626.753 115H615.878L632.721 69.5H639.596L638.503 78.1562ZM648.253 115L636.471 78.1562L635.253 69.5H642.221L659.128 115H648.253ZM647.753 98.0625V105.938H624.034V98.0625H647.753ZM696.436 107.125V115H673.467V107.125H696.436ZM676.936 69.5V115H666.749V69.5H676.936Z" fill="#D23636"/>
<path d="M327.591 153.188H334.537L344.763 182.418L354.99 153.188H361.935L347.552 193H341.974L327.591 153.188ZM323.845 153.188H330.763L332.021 181.68V193H323.845V153.188ZM358.763 153.188H365.708V193H357.505V181.68L358.763 153.188ZM392.94 159.996L382.111 193H373.389L388.182 153.188H393.732L392.94 159.996ZM401.936 193L391.08 159.996L390.205 153.188H395.811L410.686 193H401.936ZM401.443 178.18V184.605H380.416V178.18H401.443ZM417.737 153.188H432.585C435.629 153.188 438.245 153.643 440.432 154.555C442.638 155.466 444.333 156.815 445.518 158.602C446.703 160.388 447.296 162.585 447.296 165.191C447.296 167.324 446.931 169.156 446.202 170.688C445.491 172.201 444.479 173.467 443.167 174.488C441.872 175.491 440.35 176.293 438.6 176.895L436.003 178.262H423.096L423.042 171.863H432.639C434.079 171.863 435.273 171.608 436.221 171.098C437.169 170.587 437.88 169.876 438.354 168.965C438.846 168.053 439.092 166.996 439.092 165.793C439.092 164.517 438.856 163.414 438.382 162.484C437.908 161.555 437.188 160.844 436.221 160.352C435.255 159.859 434.043 159.613 432.585 159.613H425.94V193H417.737V153.188ZM439.995 193L430.917 175.254L439.585 175.199L448.772 192.617V193H439.995ZM465.175 153.188V193H456.972V153.188H465.175ZM489.019 153.188L473.242 172.848L464.136 182.637L462.66 174.871L468.812 166.449L478.956 153.188H489.019ZM479.695 193L467.964 174.598L474.035 169.512L489.402 193H479.695ZM522.648 186.602V193H501.457V186.602H522.648ZM504.137 153.188V193H495.934V153.188H504.137ZM519.887 169.402V175.637H501.457V169.402H519.887ZM522.621 153.188V159.613H501.457V153.188H522.621ZM549.141 153.188V193H540.965V153.188H549.141ZM561.391 153.188V159.613H528.907V153.188H561.391ZM578.15 153.188V193H569.974V153.188H578.15ZM621.596 153.188V193H613.392L597.396 166.312V193H589.193V153.188H597.396L613.42 179.902V153.188H621.596ZM663.647 172.191V187.969C663.027 188.716 662.07 189.527 660.776 190.402C659.482 191.259 657.814 191.997 655.772 192.617C653.73 193.237 651.26 193.547 648.362 193.547C645.792 193.547 643.449 193.128 641.335 192.289C639.22 191.432 637.397 190.184 635.866 188.543C634.353 186.902 633.186 184.897 632.366 182.527C631.545 180.139 631.135 177.414 631.135 174.352V171.863C631.135 168.801 631.527 166.076 632.311 163.688C633.113 161.299 634.253 159.285 635.729 157.645C637.206 156.004 638.965 154.755 641.006 153.898C643.048 153.042 645.318 152.613 647.815 152.613C651.279 152.613 654.122 153.178 656.346 154.309C658.57 155.421 660.266 156.97 661.432 158.957C662.617 160.926 663.346 163.186 663.62 165.738H655.663C655.462 164.389 655.079 163.214 654.514 162.211C653.949 161.208 653.138 160.424 652.081 159.859C651.042 159.294 649.693 159.012 648.034 159.012C646.667 159.012 645.445 159.294 644.37 159.859C643.312 160.406 642.419 161.217 641.69 162.293C640.961 163.368 640.405 164.699 640.022 166.285C639.639 167.871 639.448 169.712 639.448 171.809V174.352C639.448 176.43 639.648 178.271 640.049 179.875C640.45 181.461 641.043 182.801 641.827 183.895C642.629 184.97 643.613 185.781 644.78 186.328C645.947 186.875 647.305 187.148 648.854 187.148C650.148 187.148 651.224 187.039 652.081 186.82C652.956 186.602 653.657 186.337 654.186 186.027C654.733 185.699 655.152 185.389 655.444 185.098V178.043H647.952V172.191H663.647Z" fill="white"/>
</svg>
