<svg width="21" height="16" viewBox="0 0 21 16" fill="none" xmlns="http://www.w3.org/2000/svg">
<path fill-rule="evenodd" clip-rule="evenodd" d="M4.10933 4.68537L4.10807 4.68632C0.181489 7.65166 0.0204775 7.77325 0.0148162 7.90169C0.0145794 7.90706 0.0146197 7.91244 0.0146617 7.91805C0.0147633 7.93164 0.0148759 7.94691 0.0112494 7.9661C-0.0827028 8.4629 0.430492 8.92897 0.855724 8.73303C1.03337 8.65113 2.5204 7.53771 8.70927 2.8523L10.3199 1.63301C10.3891 1.58061 10.4237 1.55441 10.4618 1.54431C10.4954 1.53541 10.5307 1.53541 10.5643 1.54431C10.6024 1.55441 10.637 1.5806 10.7062 1.633L15.2959 5.10748C17.9426 7.11105 20.1763 8.74796 20.2971 8.77241C20.4621 8.80581 20.5769 8.76431 20.7667 8.6028C20.9859 8.41621 21.015 8.34768 20.9946 8.06529C20.9713 7.74367 20.9622 7.73479 19.5335 6.65865C18.7428 6.06298 17.9472 5.45111 17.7656 5.29895L17.5498 5.11813C17.5077 5.08287 17.4867 5.06524 17.4716 5.04366C17.4582 5.02454 17.4482 5.00322 17.4422 4.98067C17.4353 4.95522 17.4353 4.92776 17.4353 4.87286V3.64555C17.4353 2.88844 17.4011 2.20421 17.3593 2.12514C17.2464 1.91183 16.8634 1.80769 16.192 1.80769C15.5206 1.80769 15.1375 1.91183 15.0247 2.12514C14.9829 2.20421 14.9486 2.44808 14.9486 2.66705C14.9486 2.88602 14.9146 3.06521 14.8731 3.06521C14.8317 3.06521 14.5257 2.85961 14.1932 2.60834C11.0593 0.240088 10.7214 0 10.5217 0C10.366 0 9.05057 0.952773 5.42249 3.69357C5.01674 4.0001 4.64142 4.28354 4.29426 4.54571L4.10933 4.68537ZM3.60296 7.78395C3.6029 7.72551 3.60287 7.69629 3.61048 7.66945C3.61722 7.64567 3.62831 7.62335 3.64318 7.60362C3.65998 7.58134 3.68328 7.56371 3.72988 7.52845L6.71863 5.26711L9.63226 3.0626C9.70445 3.00798 9.74055 2.98067 9.78006 2.97075C9.81492 2.96201 9.8515 2.96282 9.88594 2.9731C9.92498 2.98475 9.95983 3.01363 10.0295 3.0714L10.1803 3.19638L10.3033 3.29824C10.382 3.36352 10.4214 3.39615 10.4649 3.40728C10.5032 3.41708 10.5435 3.41532 10.5808 3.40223C10.6231 3.38736 10.6595 3.35141 10.7323 3.27952L10.8269 3.18609L10.9321 3.08217C11.0015 3.01365 11.0362 2.97939 11.0768 2.96443C11.1125 2.95124 11.1513 2.94854 11.1885 2.95664C11.2307 2.96583 11.2698 2.99494 11.3481 3.05318L11.8002 3.3898C12.1701 3.66512 12.6188 3.99654 12.7971 4.12623C12.9755 4.25591 14.0921 5.09852 15.2784 5.99861L17.3088 7.53925C17.3552 7.57447 17.3784 7.59209 17.3951 7.61432C17.41 7.63401 17.421 7.65628 17.4277 7.67999C17.4353 7.70676 17.4353 7.7359 17.4353 7.79417V8.7691V9.58317C17.4353 9.69513 17.4353 9.75111 17.4136 9.79388C17.3944 9.83151 17.3638 9.8621 17.3262 9.88128C17.2834 9.90309 17.2275 9.90311 17.1155 9.90317L16.7942 9.90332C15.9434 9.90372 13.8263 10.104 13.0037 10.2618C11.9351 10.4668 10.4532 10.8899 9.60038 11.2336C6.9053 12.3195 5.19736 13.8203 3.75 15.9629C3.6252 16.1478 3.61073 15.7707 3.60684 11.8094L3.60296 7.78395ZM10.3637 6.60199V6.98942C10.3637 7.10143 10.3637 7.15743 10.3419 7.20021C10.3227 7.23785 10.2921 7.26844 10.2545 7.28762C10.2117 7.30942 10.1557 7.30942 10.0437 7.30942H9.60995L9.15186 7.31006C9.03971 7.31022 8.98363 7.3103 8.94079 7.28852C8.9031 7.26937 8.87245 7.23876 8.85325 7.20111C8.83141 7.15829 8.83141 7.10222 8.83141 6.99006V6.60315V6.13603C8.83141 6.02402 8.83141 5.96801 8.85321 5.92523C8.87238 5.8876 8.90298 5.857 8.94061 5.83783C8.98339 5.81603 9.0394 5.81603 9.15141 5.81603H9.58655H10.0437C10.1557 5.81603 10.2117 5.81603 10.2545 5.83783C10.2921 5.857 10.3227 5.8876 10.3419 5.92523C10.3637 5.96801 10.3637 6.02402 10.3637 6.13603V6.60199ZM12.1899 6.56276V6.98942C12.1899 7.10143 12.1899 7.15743 12.1681 7.20021C12.1489 7.23785 12.1183 7.26844 12.0807 7.28762C12.0379 7.30942 11.9819 7.30942 11.8699 7.30942H11.4544H11.0186C10.9066 7.30942 10.8506 7.30942 10.8078 7.28762C10.7702 7.26844 10.7396 7.23785 10.7204 7.20021C10.6986 7.15743 10.6986 7.10143 10.6986 6.98942V6.60205V6.13603C10.6986 6.02402 10.6986 5.96801 10.7204 5.92523C10.7396 5.8876 10.7702 5.857 10.8078 5.83783C10.8506 5.81603 10.9066 5.81603 11.0186 5.81603H11.4544H11.8699C11.9819 5.81603 12.0379 5.81603 12.0807 5.83783C12.1183 5.857 12.1489 5.8876 12.1681 5.92523C12.1899 5.96801 12.1899 6.02402 12.1899 6.13603V6.56276ZM10.3637 8.40969V8.87565C10.3637 8.98766 10.3637 9.04366 10.3419 9.08644C10.3227 9.12408 10.2921 9.15467 10.2545 9.17385C10.2117 9.19565 10.1557 9.19565 10.0437 9.19565H9.58655L9.15287 9.19569C9.04085 9.1957 8.98484 9.1957 8.94205 9.17391C8.90442 9.15473 8.87382 9.12414 8.85464 9.0865C8.83284 9.04372 8.83284 8.98771 8.83284 8.87569V8.40976L8.83202 7.98371C8.83181 7.87151 8.8317 7.8154 8.85347 7.77254C8.87262 7.73483 8.90322 7.70417 8.94089 7.68495C8.98372 7.6631 9.03982 7.6631 9.15202 7.6631H9.57109H10.0437C10.1557 7.6631 10.2117 7.6631 10.2545 7.6849C10.2921 7.70407 10.3227 7.73467 10.3419 7.7723C10.3637 7.81508 10.3637 7.87109 10.3637 7.9831V8.40969ZM12.1899 8.43051V8.87565C12.1899 8.98766 12.1899 9.04366 12.1681 9.08644C12.1489 9.12408 12.1183 9.15467 12.0807 9.17385C12.0379 9.19565 11.9819 9.19565 11.8699 9.19565H11.4544H10.9945C10.8825 9.19565 10.8265 9.19565 10.7837 9.17385C10.7461 9.15467 10.7155 9.12408 10.6963 9.08644C10.6745 9.04366 10.6745 8.98766 10.6745 8.87565V8.40686V7.9842C10.6745 7.87219 10.6745 7.81618 10.6963 7.7734C10.7155 7.73577 10.7461 7.70517 10.7837 7.68599C10.8265 7.6642 10.8825 7.6642 10.9945 7.6642H11.4347L11.8694 7.66352C11.9815 7.66335 12.0376 7.66326 12.0805 7.68504C12.1182 7.70419 12.1488 7.7348 12.168 7.77246C12.1899 7.81527 12.1899 7.87136 12.1899 7.98352V8.04735V8.43051Z" fill="#D23636"/>
</svg>
