<svg width="19" height="16" viewBox="0 0 19 16" fill="none" xmlns="http://www.w3.org/2000/svg">
<rect width="18.2105" height="15.3684" rx="2" fill="#D32820"/>
<path fill-rule="evenodd" clip-rule="evenodd" d="M4.78075 5.32908L4.7799 5.32975C2.12281 7.4367 2.01386 7.5231 2.01003 7.61436C2.00987 7.61818 2.00989 7.622 2.00992 7.62598C2.00999 7.63564 2.01007 7.64649 2.00761 7.66012C1.94404 8.01311 2.29131 8.34427 2.57906 8.20505C2.69927 8.14686 3.70553 7.35574 7.89349 4.02663L8.86518 3.25425C8.98458 3.15934 9.04427 3.11189 9.11408 3.11189C9.18388 3.11189 9.24358 3.15934 9.36298 3.25424L12.3506 5.629C14.1416 7.05259 15.6531 8.21566 15.7349 8.23302C15.8465 8.25676 15.9242 8.22727 16.0527 8.11251C16.201 7.97994 16.2207 7.93125 16.2068 7.7306C16.1911 7.50208 16.1849 7.49577 15.2182 6.73115C14.6831 6.30791 14.1447 5.87315 14.0218 5.76504L13.9341 5.68787C13.8673 5.62907 13.8339 5.59967 13.8161 5.56038C13.7983 5.5211 13.7983 5.47659 13.7983 5.38756V4.59026C13.7983 4.05231 13.7752 3.56615 13.7469 3.50997C13.6705 3.35841 13.4113 3.28441 12.957 3.28441C12.5026 3.28441 12.2434 3.35841 12.1671 3.50997C12.1388 3.56615 12.1156 3.73943 12.1156 3.89501C12.1156 4.05059 12.0926 4.17791 12.0645 4.17791C12.0365 4.17791 11.8294 4.03183 11.6044 3.85329C9.48376 2.17059 9.25506 2 9.11996 2C9.01458 2 8.12444 2.67697 5.66935 4.62438C5.39478 4.84218 5.14081 5.04357 4.90589 5.22985L4.78075 5.32908ZM4.43816 7.61079C4.43808 7.51582 4.43803 7.46834 4.45792 7.42709C4.47781 7.38584 4.51499 7.3563 4.58935 7.29723L6.54644 5.74242L8.41185 4.26044C8.51936 4.17503 8.57311 4.13233 8.6349 4.12795C8.64728 4.12708 8.65972 4.12735 8.67206 4.12878C8.73358 4.13592 8.78537 4.18098 8.88895 4.27111L8.90191 4.28239C8.97478 4.34579 9.01121 4.37749 9.05111 4.39C9.09579 4.40401 9.14396 4.4019 9.18724 4.38404C9.22589 4.36809 9.25942 4.33333 9.32647 4.2638C9.40037 4.18716 9.43733 4.14884 9.48136 4.13307C9.51597 4.12067 9.55333 4.11805 9.58933 4.12549C9.63514 4.13497 9.67708 4.16775 9.76096 4.23332L9.98512 4.40854C10.2354 4.60416 10.539 4.83965 10.6597 4.93179C10.7804 5.02394 11.536 5.62263 12.3388 6.26217L13.6476 7.30497C13.7217 7.36398 13.7587 7.39348 13.7785 7.43463C13.7983 7.47577 13.7983 7.52312 13.7983 7.61781V8.23068V8.63656C13.7983 8.82503 13.7983 8.91927 13.7398 8.97784C13.6813 9.03641 13.587 9.03646 13.3985 9.03656L13.3645 9.03657C12.7887 9.03685 11.3561 9.17914 10.7995 9.29128C10.0764 9.43692 9.07358 9.73759 8.4965 9.98174C6.67276 10.7533 5.51701 11.8197 4.53759 13.3421C4.45314 13.4734 4.44335 13.2055 4.44072 10.3909L4.43816 7.61079ZM9.01301 6.69088V6.79353C9.01301 6.98209 9.01301 7.07637 8.95443 7.13495C8.89585 7.19353 8.80157 7.19353 8.61301 7.19353H8.50297L8.37673 7.19372C8.18791 7.194 8.09351 7.19414 8.03482 7.13554C7.97614 7.07695 7.97614 6.98254 7.97614 6.79372V6.69171V6.53244C7.97614 6.34388 7.97614 6.2496 8.03472 6.19102C8.0933 6.13244 8.18758 6.13244 8.37614 6.13244H8.48714H8.61301C8.80157 6.13244 8.89585 6.13244 8.95443 6.19102C9.01301 6.2496 9.01301 6.34388 9.01301 6.53244V6.69088ZM10.2488 6.66301V6.79353C10.2488 6.98209 10.2488 7.07637 10.1902 7.13495C10.1316 7.19353 10.0373 7.19353 9.84878 7.19353H9.75111H9.63968C9.45112 7.19353 9.35684 7.19353 9.29826 7.13495C9.23968 7.07637 9.23968 6.98209 9.23968 6.79353V6.69093V6.53244C9.23968 6.34388 9.23968 6.2496 9.29826 6.19102C9.35684 6.13244 9.45112 6.13244 9.63968 6.13244H9.75111H9.84878C10.0373 6.13244 10.1316 6.13244 10.1902 6.19102C10.2488 6.2496 10.2488 6.34388 10.2488 6.53244V6.66301ZM9.01301 7.9753V8.13375C9.01301 8.32231 9.01301 8.41659 8.95443 8.47517C8.89585 8.53375 8.80157 8.53375 8.61301 8.53375H8.48714L8.37715 8.53376C8.18857 8.53378 8.09428 8.53379 8.03569 8.47521C7.97711 8.41663 7.97711 8.32234 7.97711 8.13376V7.97535L7.97687 7.84556C7.97653 7.65669 7.97635 7.56225 8.03495 7.50354C8.09355 7.44483 8.18799 7.44483 8.37687 7.44483H8.47668H8.61301C8.80157 7.44483 8.89585 7.44483 8.95443 7.50341C9.01301 7.56199 9.01301 7.65627 9.01301 7.84483V7.9753ZM10.2488 7.9901V8.13375C10.2488 8.32231 10.2488 8.41659 10.1902 8.47517C10.1316 8.53375 10.0373 8.53375 9.84878 8.53375H9.75111H9.62335C9.43479 8.53375 9.34051 8.53375 9.28193 8.47517C9.22335 8.41659 9.22335 8.32231 9.22335 8.13375V7.97329V7.84561C9.22335 7.65705 9.22335 7.56277 9.28193 7.50419C9.34051 7.44561 9.43479 7.44561 9.62335 7.44561H9.73777L9.97571 7.44523C10.0434 7.44512 10.0772 7.44506 10.1048 7.45311C10.1703 7.47221 10.2215 7.52335 10.2407 7.58878C10.2488 7.61636 10.2488 7.65019 10.2488 7.71785V7.9901Z" fill="white"/>
</svg>
